<svg xmlns="http://www.w3.org/2000/svg" viewBox="0 0 172.73 48.764">
  <defs>
    <style>
      .cls-1 {
        fill: #f98e12;
      }
    </style>
  </defs>
  <g id="Symbol_1_1" data-name="Symbol 1 – 1" transform="translate(-286.464 -241.154)">
    <g id="Exclusion_2" data-name="Exclusion 2" transform="translate(-11 -1)">
      <path id="Exclusion_2-2" data-name="Exclusion 2" class="cls-1" d="M317.927-2032.235H259.2a8.51,8.51,0,0,1-8.482-7.961c-.19-.009-.294-.042-.309-.1s.079-.158.292-.289c0,.118.007.244.016.385l.105,0c1.761,0,8.869-1.442,15.521-3.148,3.926-1.007,13.2-3.53,14.529-5.2,2.167-2.725,3.265-6.363,3.265-10.814,0-4.332-1.06-7.87-3.149-10.516a.662.662,0,0,1-.127-.6c.437-1.692,6.524-4.244,10.969-6.108,2.549-1.068,4.559-1.91,4.5-2.185-.013-.065-.138-.1-.382-.1-1.8,0-9.2,1.59-16.476,3.543-4.187,1.123-14.072,3.919-15.413,5.627-2.172,2.764-3.273,6.436-3.273,10.913a16.021,16.021,0,0,0,3.224,10.367.71.71,0,0,1,.148.649c-.413,1.635-5.85,3.9-9.821,5.554l-.012,0a37.713,37.713,0,0,0-3.626,1.625l0-.016c0-.023,0-.046,0-.068s0-.045,0-.067V-2072.5a8.509,8.509,0,0,1,8.5-8.5h58.724a8.509,8.509,0,0,1,8.5,8.5v31.765A8.509,8.509,0,0,1,317.927-2032.235Zm-2.262-33.513a7.614,7.614,0,0,0-6.049,2.957,12.206,12.206,0,0,0-2.46,8.016c0,3.24.766,5.8,2.277,7.609a7.9,7.9,0,0,0,6.4,2.729,11.275,11.275,0,0,0,6.133-1.508v-4.524a8.064,8.064,0,0,1-4.936,1.587,4.739,4.739,0,0,1-3.37-1.106,4.806,4.806,0,0,1-1.3-3.318h11.1v-2.64a11.5,11.5,0,0,0-2.035-7.163A6.878,6.878,0,0,0,315.665-2065.749Zm-19.709,4.8a2.321,2.321,0,0,1,2.12,1.181,7.079,7.079,0,0,1,.706,3.542v11.289h5.234v-12.441c0-2.779-.475-4.891-1.412-6.28a4.791,4.791,0,0,0-4.238-2.094c-2.381,0-4.22,1.249-5.467,3.711h-.067v-3.215h-5.252v20.318h5.251v-11.588a5.407,5.407,0,0,1,.881-3.175A2.659,2.659,0,0,1,295.956-2060.946Zm-59.614,20.582H231.25v-24.089h5.092v2.481h.065a6.009,6.009,0,0,1,5.3-2.884,5.989,5.989,0,0,1,4.954,2.2,9.4,9.4,0,0,1,1.749,5.986,10.2,10.2,0,0,1-2.039,6.623,6.675,6.675,0,0,1-5.423,2.5,5.156,5.156,0,0,1-4.543-2.32h-.065v9.506Zm3.464-20.593a3.19,3.19,0,0,0-2.553,1.184,4.743,4.743,0,0,0-.991,3.134v1.321a4.222,4.222,0,0,0,.9,2.788,2.952,2.952,0,0,0,2.369,1.079,3.134,3.134,0,0,0,2.7-1.345,6.525,6.525,0,0,0,.959-3.811C243.19-2059.493,242.051-2060.957,239.806-2060.957Zm-23.042,13.406a5.28,5.28,0,0,1-4.3-1.736,8.077,8.077,0,0,1-1.434-5.209v-9.958H216.1v9.507c0,2.32.932,3.5,2.771,3.5a2.751,2.751,0,0,0,2.191-.958,3.881,3.881,0,0,0,.822-2.6v-9.443h5.076v16.5h-5.076v-2.514h-.08A5.783,5.783,0,0,1,216.764-2047.55Zm-17.789,0a8.909,8.909,0,0,1-6.485-2.312,8.422,8.422,0,0,1-2.361-6.277,8.414,8.414,0,0,1,2.45-6.4,9.292,9.292,0,0,1,6.622-2.313,8.8,8.8,0,0,1,6.446,2.313,8.254,8.254,0,0,1,2.336,6.115,8.762,8.762,0,0,1-2.409,6.493A9,9,0,0,1,198.975-2047.55Zm.13-13.406a3.411,3.411,0,0,0-2.8,1.241,5.5,5.5,0,0,0-1,3.513c0,3.154,1.291,4.753,3.836,4.753,2.427,0,3.658-1.643,3.658-4.883C202.794-2059.4,201.553-2060.957,199.1-2060.957Zm-33.4,13.406c-3.7,0-6.657-1.038-8.789-3.086a11.273,11.273,0,0,1-3.215-8.5,11.919,11.919,0,0,1,3.513-8.878,12.854,12.854,0,0,1,9.346-3.432,19.075,19.075,0,0,1,6.478,1.015v4.883a12.932,12.932,0,0,0-6.542-1.547,7.056,7.056,0,0,0-5.278,2.1,7.76,7.76,0,0,0-2.038,5.616,7.783,7.783,0,0,0,1.83,5.511,6.473,6.473,0,0,0,4.938,1.949,6.9,6.9,0,0,0,2.965-.532v-4.512h-4.624v-4.157h9.829v11.618A16.706,16.706,0,0,1,165.7-2047.55Zm17.5-.4h-5.092v-16.5H183.2v3.062h.064c.8-2.224,2.267-3.352,4.351-3.352a3.284,3.284,0,0,1,1.257.194v4.689a4.434,4.434,0,0,0-2.143-.5,3.1,3.1,0,0,0-2.595,1.216,5.333,5.333,0,0,0-.934,3.311v7.879Zm89.258-2.021a5.07,5.07,0,0,1-4.354-2.46,11.853,11.853,0,0,1-1.661-6.687,12.083,12.083,0,0,1,1.661-6.7,5.146,5.146,0,0,1,4.487-2.53,4.91,4.91,0,0,1,4.32,2.461,12.763,12.763,0,0,1,1.579,6.885,11.727,11.727,0,0,1-1.628,6.637A5.091,5.091,0,0,1,272.459-2049.974Zm46.13-7.183h-6.265a6.306,6.306,0,0,1,1.122-3.115,2.684,2.684,0,0,1,2.185-1.25,2.511,2.511,0,0,1,2.219,1.092,5.9,5.9,0,0,1,.739,3.272Z" transform="translate(143.767 2323.153)"/>
    </g>
  </g>
</svg>
